<mxfile host="app.diagrams.net" agent="Mozilla/5.0 (Macintosh; Intel Mac OS X 10_15_7) AppleWebKit/605.1.15 (KHTML, like Gecko) Version/18.2 Safari/605.1.15" version="26.0.16">
  <diagram name="Page-1" id="zsTeysI2aH9Z0_EaXzzF">
    <mxGraphModel dx="741" dy="1775" grid="1" gridSize="10" guides="1" tooltips="1" connect="1" arrows="1" fold="1" page="1" pageScale="1" pageWidth="827" pageHeight="1169" math="0" shadow="0">
      <root>
        <mxCell id="0" />
        <mxCell id="1" parent="0" />
        <mxCell id="h0S27o6PeOCapEFy2ehr-1" value="Bank" style="shape=umlActor;verticalLabelPosition=bottom;verticalAlign=top;html=1;outlineConnect=0;" parent="1" vertex="1">
          <mxGeometry x="90" y="100" width="30" height="60" as="geometry" />
        </mxCell>
        <mxCell id="h0S27o6PeOCapEFy2ehr-2" value="Deweloper" style="shape=umlActor;verticalLabelPosition=bottom;verticalAlign=top;html=1;outlineConnect=0;" parent="1" vertex="1">
          <mxGeometry x="90" y="340" width="30" height="60" as="geometry" />
        </mxCell>
        <mxCell id="h0S27o6PeOCapEFy2ehr-5" value="" style="whiteSpace=wrap;html=1;aspect=fixed;" parent="1" vertex="1">
          <mxGeometry x="160" y="-110" width="650" height="650" as="geometry" />
        </mxCell>
        <mxCell id="h0S27o6PeOCapEFy2ehr-6" value="&lt;span style=&quot;font-style: normal; font-variant-caps: normal; font-weight: 400; letter-spacing: normal; orphans: auto; text-align: start; text-indent: 0px; text-transform: none; white-space: normal; widows: auto; word-spacing: 0px; -webkit-text-stroke-width: 0px; text-decoration: none; caret-color: rgb(0, 0, 0); color: rgb(0, 0, 0); background-color: transparent;&quot;&gt; ewidencja wplat&lt;span class=&quot;Apple-converted-space&quot;&gt;&amp;nbsp;&lt;/span&gt;&lt;span class=&quot;ql-cursor&quot;&gt;﻿&lt;/span&gt;dla klientow&lt;/span&gt;" style="ellipse;whiteSpace=wrap;html=1;" parent="1" vertex="1">
          <mxGeometry x="300" y="70" width="120" height="80" as="geometry" />
        </mxCell>
        <mxCell id="h0S27o6PeOCapEFy2ehr-7" value="&lt;span style=&quot;font-style: normal; font-variant-caps: normal; font-weight: 400; letter-spacing: normal; orphans: auto; text-align: start; text-indent: 0px; text-transform: none; white-space: normal; widows: auto; word-spacing: 0px; -webkit-text-stroke-width: 0px; text-decoration: none; caret-color: rgb(0, 0, 0); color: rgb(0, 0, 0); background-color: transparent;&quot;&gt; ewidencja wyplat dla dewel&lt;span class=&quot;ql-cursor&quot;&gt;﻿&lt;/span&gt;opera&lt;/span&gt;" style="ellipse;whiteSpace=wrap;html=1;" parent="1" vertex="1">
          <mxGeometry x="420" y="150" width="120" height="80" as="geometry" />
        </mxCell>
        <mxCell id="h0S27o6PeOCapEFy2ehr-8" value="&lt;span style=&quot;text-align: start;&quot;&gt;generow&lt;span class=&quot;ql-cursor&quot;&gt;﻿&lt;/span&gt;anie raportow&lt;/span&gt;" style="ellipse;whiteSpace=wrap;html=1;" parent="1" vertex="1">
          <mxGeometry x="180" y="210" width="120" height="80" as="geometry" />
        </mxCell>
        <mxCell id="h0S27o6PeOCapEFy2ehr-9" value="&lt;span style=&quot;text-align: start;&quot;&gt;zarzadzanie rachunk&lt;span class=&quot;ql-cursor&quot;&gt;﻿&lt;/span&gt;ami powerniczymi&amp;nbsp;&lt;/span&gt;" style="ellipse;whiteSpace=wrap;html=1;" parent="1" vertex="1">
          <mxGeometry x="190" y="320" width="120" height="80" as="geometry" />
        </mxCell>
        <mxCell id="h0S27o6PeOCapEFy2ehr-10" value="&lt;span style=&quot;text-align: start;&quot;&gt;obsluga składek na Deweloperski&amp;nbsp;&lt;span class=&quot;ql-cursor&quot;&gt;﻿&lt;/span&gt;Fundusz Gwarancyjny&lt;/span&gt;" style="ellipse;whiteSpace=wrap;html=1;" parent="1" vertex="1">
          <mxGeometry x="190" y="410" width="130" height="90" as="geometry" />
        </mxCell>
        <mxCell id="h0S27o6PeOCapEFy2ehr-11" value="" style="endArrow=none;html=1;rounded=0;" parent="1" target="h0S27o6PeOCapEFy2ehr-6" edge="1">
          <mxGeometry width="50" height="50" relative="1" as="geometry">
            <mxPoint x="130" y="130" as="sourcePoint" />
            <mxPoint x="180" y="80" as="targetPoint" />
          </mxGeometry>
        </mxCell>
        <mxCell id="h0S27o6PeOCapEFy2ehr-12" value="" style="endArrow=none;html=1;rounded=0;" parent="1" target="h0S27o6PeOCapEFy2ehr-7" edge="1">
          <mxGeometry width="50" height="50" relative="1" as="geometry">
            <mxPoint x="130" y="140" as="sourcePoint" />
            <mxPoint x="550" y="270" as="targetPoint" />
          </mxGeometry>
        </mxCell>
        <mxCell id="h0S27o6PeOCapEFy2ehr-13" value="" style="endArrow=none;html=1;rounded=0;entryX=0;entryY=0;entryDx=0;entryDy=0;" parent="1" target="h0S27o6PeOCapEFy2ehr-8" edge="1">
          <mxGeometry width="50" height="50" relative="1" as="geometry">
            <mxPoint x="140" y="160" as="sourcePoint" />
            <mxPoint x="550" y="270" as="targetPoint" />
          </mxGeometry>
        </mxCell>
        <mxCell id="h0S27o6PeOCapEFy2ehr-14" value="" style="endArrow=none;html=1;rounded=0;" parent="1" edge="1">
          <mxGeometry width="50" height="50" relative="1" as="geometry">
            <mxPoint x="130" y="370" as="sourcePoint" />
            <mxPoint x="194" y="346" as="targetPoint" />
          </mxGeometry>
        </mxCell>
        <mxCell id="h0S27o6PeOCapEFy2ehr-15" value="" style="endArrow=none;html=1;rounded=0;entryX=0.05;entryY=0.363;entryDx=0;entryDy=0;entryPerimeter=0;" parent="1" target="h0S27o6PeOCapEFy2ehr-10" edge="1">
          <mxGeometry width="50" height="50" relative="1" as="geometry">
            <mxPoint x="130" y="390" as="sourcePoint" />
            <mxPoint x="180" y="310" as="targetPoint" />
          </mxGeometry>
        </mxCell>
        <mxCell id="h0S27o6PeOCapEFy2ehr-16" value="&lt;span style=&quot;text-align: start;&quot;&gt; obsluga dokume&lt;span class=&quot;ql-cursor&quot;&gt;﻿&lt;/span&gt;ntacji zwiazanej z MRP&lt;/span&gt;" style="ellipse;whiteSpace=wrap;html=1;" parent="1" vertex="1">
          <mxGeometry x="390" y="240" width="120" height="80" as="geometry" />
        </mxCell>
        <mxCell id="h0S27o6PeOCapEFy2ehr-17" value="" style="endArrow=none;html=1;rounded=0;entryX=0;entryY=0;entryDx=0;entryDy=0;" parent="1" target="h0S27o6PeOCapEFy2ehr-16" edge="1">
          <mxGeometry width="50" height="50" relative="1" as="geometry">
            <mxPoint x="140" y="150" as="sourcePoint" />
            <mxPoint x="410" y="270" as="targetPoint" />
          </mxGeometry>
        </mxCell>
        <mxCell id="tuS-smQaxqwhOqSSkz65-2" value="Client" style="shape=umlActor;verticalLabelPosition=bottom;verticalAlign=top;html=1;outlineConnect=0;" vertex="1" parent="1">
          <mxGeometry x="90" y="-70" width="30" height="60" as="geometry" />
        </mxCell>
        <mxCell id="tuS-smQaxqwhOqSSkz65-3" value="" style="endArrow=none;html=1;rounded=0;" edge="1" parent="1" target="h0S27o6PeOCapEFy2ehr-7">
          <mxGeometry width="50" height="50" relative="1" as="geometry">
            <mxPoint x="140" y="350" as="sourcePoint" />
            <mxPoint x="410" y="240" as="targetPoint" />
          </mxGeometry>
        </mxCell>
        <mxCell id="tuS-smQaxqwhOqSSkz65-5" value="" style="endArrow=none;html=1;rounded=0;" edge="1" parent="1" target="h0S27o6PeOCapEFy2ehr-6">
          <mxGeometry width="50" height="50" relative="1" as="geometry">
            <mxPoint x="130" y="-20" as="sourcePoint" />
            <mxPoint x="410" y="110" as="targetPoint" />
          </mxGeometry>
        </mxCell>
      </root>
    </mxGraphModel>
  </diagram>
</mxfile>
